<?xml version="1.0" encoding="UTF-8"?>
<svg width="255.04" height="39.36" version="1.1" viewBox="0 0 255.04 39.36" xmlns="http://www.w3.org/2000/svg" xmlns:cc="http://creativecommons.org/ns#" xmlns:dc="http://purl.org/dc/elements/1.1/" xmlns:rdf="http://www.w3.org/1999/02/22-rdf-syntax-ns#">
 <metadata>
  <rdf:RDF>
   <cc:Work rdf:about="">
    <dc:format>image/svg+xml</dc:format>
    <dc:type rdf:resource="http://purl.org/dc/dcmitype/StillImage"/>
    <dc:title/>
   </cc:Work>
  </rdf:RDF>
 </metadata>
 <path d="m16.07 39.003-1.92-0.42164-3.2639-1.2478-3.6169-2.4008-3.7729-4.1175-2.2479-4.6197-1.0183-4.6063v-3.5873l1.0183-4.6063 2.2479-4.6197 3.8006-4.1477 3.9731-2.6069 5.0876-1.6155 4.8324-0.35271 4.8 1.0104 5.4028 2.664 4.5853 4.5853 2.6925 5.4336 0.50468 2.9931 0.50468 2.9931-0.9937 6.0805-2.7081 5.4653-4.5853 4.5853-5.4028 2.6634-4.48 0.93736-3.52-0.03974-1.92-0.42163zm7.6023-1.5968 2.1623-0.45822 4.6353-2.4029 4.2455-4.2695 2.3228-4.7201 0.94059-4.48v-2.56l-0.94059-4.48-2.3228-4.7201-4.2455-4.2695-4.6353-2.4029-4.3247-0.91643h-3.2l-4.3436 0.9204-4.2964 2.0977-4.8108 4.8108-2.0472 4.1938-0.97254 4.1262v3.84l0.97254 4.1262 2.0472 4.1938 4.8108 4.8108 4.3203 2.1095 3.9997 0.86886 3.52 0.03974 2.1623-0.45822zm-4.2423-5.9386v-0.32792l-1.76-0.76003 2.4-0.22276 2.4 0.22438-1.28 0.56599-0.5118 0.84826h-1.2482zm-2.56-2.5521v-0.32h1.2115l0.38847-1.0123v-1.4778l-1.2659-2.7899-0.014-1.44h-1.28v-0.64h8.32v0.56536l-1.28 0.33473v1.5094l-1.28 2.3882v1.3244l0.66252 1.2379h0.93748v0.64h-6.4zm-4.8-5.0967v-0.2967l2.3858-1.9666h-0.69951l-1.8463 1.425-0.64753 0.83708-1.2725-0.93814 3.7363-1.7166 1.2361 0.55269-1.979 2.4h-0.9134zm14.212-0.83201-0.86091-1.1287 0.28563-0.28563 2.283 1.5513 0.19028 0.49586 0.19028 0.49586h-1.2273zm2.4283 0.50198v-0.32925l-2.72-1.998 1.6 0.47609 2.4 1.2109v0.28448l-1.28 0.68504zm-19.2-1.4696v-0.49633l2.08-0.86491 3.84-0.40232-4.7268 1.5787-0.68121 0.68121h-0.512zm20-0.06979-0.96-0.51442-3.84-1.1139 1.2276-0.0456 4.0246 0.70085 0.72837 0.87764-0.22051 0.60982zm-11.747-3.5139 0.09792-1.52 0.21453-0.96 0.03712 2 0.03712 2h-0.48461zm1.0267-0.4v-1.92h0.64v3.84h-0.64zm1.28 0v-1.92h2.56v3.84h-2.56zm-10.67 0.94158 0.33842-0.33842 3.5543-0.36683 1.8169 0.51734-3.2 0.47026-1.424 0.02804-1.424 0.02803zm17.07 0.03263-1.44-0.20966 1.8169-0.52821 3.5543 0.36683 0.67683 0.67683-3.168-0.09612zm-18.667-0.54755-0.21333-0.21333v-0.82325l2.4-0.66651 2.56 0.0116 3.8066 1.5648 0.28893-0.28893-2.0478-0.95319-2.0478-0.95321-3.8145-0.98467h-2.0678l-0.35985-0.58224 0.41795-1.0892 2.6008 0.34884 5.8054 2.8819 1.7836 1.403-0.64386 0.64386-2.6147-1.0462h-2.4453l-3.1417 0.95307-0.05334 7e-3zm16.267-0.10667 0.26499-0.42876-1.225 0.42803 1.92-1.6064 5.9858-2.9825 2.6542-0.05038v1.2773l-3.8171 0.47681-3.2229 1.0536-2.462 1.2369 0.22886 0.22886 3.5132-1.2126 2.1166-0.0209 2.8434 0.71598v0.48566l-0.8 0.65799-3.9573-1.0348-3.0827 0.6802-1.225 0.5237zm-17.239-1.7678-0.20129-0.52456v-0.26766l2.72 0.04498 1.2589 0.49212-2.5389 0.35984-1.0374 0.41984zm25.559 0.15023-0.64-0.25747-2.24-0.08996 1.28-0.55004 2.72-0.04498v0.92223l-0.48 0.27769zm-14.353-2.147-0.15111-0.2445 0.04718-3.1211 0.84709 1.1585 1.251-1.1321 1.4431 1.0108 1.1561-1.0462v0.61119l-0.69254 0.69255 0.81404 1.3035-0.83986 1.012h-3.7239zm31.473 18.325v-2.4h6.3775l0.33126 0.61896 0.33126 0.61896v1.2858l-1.4224 0.99629h-3.6976v1.28h-1.92zm5.0124-0.2657 0.1867-0.18669-0.18949-0.4938-0.18949-0.4938h-2.9001v1.1733l0.23456 0.23455 0.23455 0.23456 2.4366-0.28145zm5.8676 0.2657v-2.4h6.4137l0.38163 0.83759 0.38163 0.83759-1.4211 1.1508 1.661 1.974h-1.8572l-1.8395-1.92h-1.8003v1.92h-1.92zm5.12-0.96v-0.48h-3.2v0.96h3.2zm6.08 0.98196v-2.378l6.0814-0.20392-6.4e-4 0.56-7.94e-4 0.56h-4.16v0.96h4.16v0.96h-4.16v0.96h4.16v0.96h-6.08zm11.52 2.1676-0.48-0.19305-1.12-0.97568v-2.0292l1.44-1.3225 2.139-0.45291 2.7273 0.40899 1.3737 1.2798v0.61507h-1.792l-0.72727-0.72727h-2.5206l-0.36005 0.22252-0.36005 0.22252v1.2197l1.3529 0.72403 2.1671-0.38151 2.24-0.39002v0.61082l-0.6635 0.60046-0.66351 0.60046-4.273 0.16086zm9.92-2.1532v-2.3637l1.92-0.2818v5.0092h-1.92zm7.1889 2.0592-0.65111-0.26392-0.92347-1.1127 2.8657 0.43146 2.5011 0.12966 0.24066-0.70542-4.1783-0.39017-0.66108-0.3538-0.66107-0.3538 0.10025-0.53841 0.10024-0.53841 2.2381-1.119 1.12 0.01756 1.12 0.01757 2.1919 0.76388 0.14095 0.43076 0.14096 0.43076-4.8738-0.45672v0.63519l2 0.4h1.8821l1.2379 0.66252v1.2212l-1.4224 0.99629-3.8576-0.04058-0.65111-0.26392zm10.091-2.1755v-2.48h1.6v4.96h-1.6zm7.0497 2.0882-0.79033-0.41742-0.87761-1.5907 0.6942-1.791 2.3852-0.99659 3.3199 0.27531 1.659 1.087v2.4461l-1.327 1.2009-4.273 0.20385zm4.2875-1.391 0.50286-0.50286v-0.55799l-0.71121-0.49815-0.7112-0.49814h-1.6352l-1.4224 0.99629v0.89191l1.12 0.65234 2.3543 0.0194 0.50286-0.50286zm6.2628-0.72172v-2.5046l2.08 0.30174 2.88 2.5343 0.0956-1.4261 0.0956-1.4261 1.5688 0.2999v4.7254h-1.691l-1.7145-1.4647-1.7145-1.4647v2.9295h-1.6zm18.24 2.2941-0.48-0.19305-1.12-0.97568v-2.0944l1.6301-1.2822 1.949-0.42807 2.7273 0.40899 1.3737 1.2798v0.61507h-1.792l-0.72727-0.72727h-2.5206l-0.36005 0.22252-0.36005 0.22252v1.2197l0.67644 0.36202 0.67643 0.36202 2.1671-0.38151 2.24-0.39002v0.61082l-0.6635 0.60046-0.66351 0.60046-4.273 0.16086zm11.36-0.15905-0.64-0.35005-0.4-0.50138-0.4-0.50138v-1.6861l1.6489-1.549 4.3819-0.0026 1.8092 1.3478 0.10834 0.5514 0.10834 0.5514-0.19297 0.76887-0.19298 0.76887-1.8789 0.97164-3.7118-0.0194-0.64-0.35005zm4.021-1.2417 0.61896-0.33126v-1.2733l-1.76-0.6841-2.2332 0.53994-0.10982 0.57537-0.10982 0.57537 0.77121 0.92926h2.2037zm6.059-0.73541v-2.3467l0.15022-0.15022 0.15022-0.15022 2.2823 0.26644 1.4173 2.4824 0.36215 0.0052 1.3996-2.4902 2.2578-0.26359 0.15023 0.15022 0.15021 0.15022v4.6933h-1.92l-0.0284-2.4-1.4117 2.3937h-1.6l-1.4117-2.3937-0.0142 1.2-0.0141 1.1998h-1.92zm12.479-0.13333-6.4e-4 -2.48 6.0758 0.20378 0.96562 1.3786v0.8176l-1.28 1.28h-4.16v1.28h-1.6l-6.4e-4 -2.48zm4.9892-0.16185 0.21056-0.21055-0.37898-0.9876h-2.8623l-0.20724 0.33532-0.20724 0.33532 0.16703 0.43526 0.16702 0.43526 2.9006-0.13246zm6.8515 2.2278-0.8-0.40465-0.40331-0.8411-0.4033-0.8411 0.64254-1.69 2.2235-0.92904h2.6011l2.2235 0.92904 0.32128 0.84501 0.32127 0.84501-0.80662 1.6822-1.6 0.8093h-3.52zm4.2971-1.3688 0.50286-0.50286v-0.55799l-1.4224-0.99629h-1.6352l-0.7112 0.49814-0.71121 0.49815v0.55799l1.0057 1.0057h2.4686zm6.2629-0.72172v-2.5046l2.08 0.30174 2.88 2.5353 0.32-2.7878 1.44-0.05082v5.0108h-1.691l-3.429-2.9295v2.9295h-1.6v-2.5046zm11.199 0.02458-6.4e-4 -2.48 6.0814 0.20392v0.91608h-4.48v0.96h4.5333l-0.26434 0.8-4.269 0.18924v0.93076h4.48v0.96h-6.08l-6.4e-4 -2.48zm9.9207 0.08v-2.4h2.2543l2.8657 2.6415v-2.5348l0.33504-0.33504 1.585 0.30298v4.7254h-1.9474l-3.1726-2.9676v2.9676h-1.92zm13.44 0.48v-1.92h-2.56v-0.92007l7.0413-0.19992-6.6e-4 0.56-6.5e-4 0.56h-2.56v3.84h-1.92zm8.7387 1.5378-0.70134-0.33892-0.18162-0.47332-0.18164-0.47332 2.7259 0.41813 2.5011 0.12966 0.24088-0.70605-4.6144-0.42886-0.42381-0.35172-0.4238-0.35172v-0.78244l1.3472-1.2192h4.395l1.4578 1.4845-5.28-0.44713v0.67659l3.68 0.38335 1.6 0.47558 0.0982 0.68266 0.0982 0.68266-1.4588 1.0218-4.1776-0.04332-0.70133-0.33891zm-189.86-12.299-0.8-0.15356-3.1271-1.0054-2.4355-2.2003-1.1574-2.9993 0.012-5.44 1.5131-3.0975 2.5942-1.8793 3.5608-1.0539h8.32l3.6771 1.0877 2.3433 2.0575 1.1359 2.5372-0.15708 0.25416-0.15721 0.25416h-4.1901l-0.62061-0.78898-0.62061-0.78898-2.3709-0.65848h-5.76l-2.3589 0.65516-1.6411 1.9504 0.0047 2.2954 0.0047 2.2954 0.79562 1.6 2.5242 1.2345 6.7508-0.03095 2.3383-0.98508 0.2124-0.66921 0.21243-0.66921h5.061l-0.30498 0.80217-0.30499 0.80217-0.48676 0.94129-0.48676 0.94129-2.1246 1.6205-2.8361 1.0471-8.32 0.19761zm84.806-0.14953-1.4337-0.28084-3.5325-1.7682-1.44-2.1746v-0.81441l4.2714-0.45742 1.0086 0.71834 1.92 1.0987 6.7424 0.25555 2.3776-0.99343v-1.6101l-1.44-0.77873-7.68-0.1941-2.9962-0.29436-2.4438-1.2531-1.6-1.7138v-3.8616l2.6719-2.3711 2.6434-0.79199 5.7754-0.64481 5.7376 0.69762 2.534 1.0139 1.5976 1.8987v1.1028l-3.8337 0.79184-1.9758-1.4608-7.1504-0.21365-2.56 0.85118-0.21418 1.5133 0.36265 0.36309 0.36264 0.36309 11.329 0.35475 2.986 1.3454 1.0936 1.6691 0.14083 1.3554 0.14084 1.3554-0.74066 1.44-0.74067 1.44-3.5367 1.7702-3.8233 0.62606-5.12-0.06642zm95.994-0.0628-1.76-0.40362-2.8552-1.5826-1.4661-2.1767-0.70788-2.6233 0.13188-2.773 0.13189-2.773 0.95339-1.5421 0.9534-1.5421 3.4987-1.7698 5.12-0.6983 4.8 0.43001 2.88 0.61934 2.425 1.5945 0.62632 1.0272 0.62631 1.0272 1e-3 0.56 1e-3 0.56h-4.2174l-1.0808-1.3347-5.1018-0.59171-3.52 0.40372-2.0375 0.8323-1.141 2.1304-0.0108 2.0941-0.0108 2.0941 0.56302 0.85927 0.56301 0.85927 1.037 0.55504 1.037 0.55504 6.72-0.018 2.72-0.78347v-0.94762l4.3e-4 -0.94766h-8.32v-3.2h13.12v7.6057l-3.36 1.3202-2.56 0.71247-8 0.27147zm-162.24-8.7062v-8.48h5.12v5.12h11.84v-5.12h5.12v16.96h-5.12v-7.68h-11.84v7.68h-5.12zm25.92-0.01854v-8.4985l17.76 0.19708 3.0159 1.4854 1.3766 2.2274-0.25434 3.9944-1.426 2.0026-1.9121 0.8464v0.50504l1.6224 3.2017 2.314 2.5614-6.3139-0.18434-1.8067-2.693-0.41968-1.2135-0.41969-1.2135-8.7365-0.17806v5.4581h-4.8zm16.687-1.5579 0.35375-0.7764-0.4191-1.6698-1.6654-0.63319-9.9967 0.17583-0.192 3.68h11.566l0.35375-0.7764zm8.9125 1.5764v-8.48h5.12v16.96h-5.12zm42.24 0v-8.48h4.8v8.0405l5.92-4.6038 4.5678-3.4598 6.5844 0.18318-7.6322 5.6964-0.11365 0.09211-0.11367 0.09211 2.4177 3.1541 2.4177 3.1541 3.9321 4.4512-5.6095 0.18652-0.4103-0.15744-0.41029-0.15744-4.9901-6.2833-1.016-1.555-5.384 4.1507-0.1906 3.976h-4.7695zm25.6 0v-8.48h4.8v16.96h-4.8zm8.96 0v-8.48h6.7921l11.928 11.628 0.1744-11.628h4.7856v16.96h-5.017l-13.209-12.16h-0.33388v12.16h-5.12z" stroke-width=".32"/>
</svg>
